<mxfile host="65bd71144e">
    <diagram id="cue2h5ZaTr38KypMYBVl" name="Page-1">
        <mxGraphModel dx="1566" dy="655" grid="1" gridSize="10" guides="1" tooltips="1" connect="1" arrows="1" fold="1" page="1" pageScale="1" pageWidth="827" pageHeight="1169" math="0" shadow="0">
            <root>
                <mxCell id="0"/>
                <mxCell id="1" parent="0"/>
                <mxCell id="14" value="State_Store" style="html=1;rounded=1;absoluteArcSize=1;arcSize=10;" vertex="1" parent="1">
                    <mxGeometry x="20" y="80" width="80" height="30" as="geometry"/>
                </mxCell>
                <mxCell id="15" value="" style="endArrow=open;html=1;rounded=0;align=center;verticalAlign=top;endFill=0;labelBackgroundColor=none;endSize=6;" edge="1" source="14" parent="1">
                    <mxGeometry relative="1" as="geometry">
                        <mxPoint x="140" y="95" as="targetPoint"/>
                    </mxGeometry>
                </mxCell>
                <mxCell id="19" value=":main" style="shape=umlLifeline;perimeter=lifelinePerimeter;whiteSpace=wrap;html=1;container=1;collapsible=0;recursiveResize=0;outlineConnect=0;" vertex="1" parent="1">
                    <mxGeometry x="100" y="20" width="100" height="300" as="geometry"/>
                </mxCell>
                <mxCell id="20" value="" style="html=1;points=[];perimeter=orthogonalPerimeter;" vertex="1" parent="19">
                    <mxGeometry x="45" y="60" width="10" height="220" as="geometry"/>
                </mxCell>
                <mxCell id="21" value=":processor" style="shape=umlLifeline;perimeter=lifelinePerimeter;whiteSpace=wrap;html=1;container=1;collapsible=0;recursiveResize=0;outlineConnect=0;" vertex="1" parent="1">
                    <mxGeometry x="220" y="20" width="100" height="340" as="geometry"/>
                </mxCell>
                <mxCell id="22" value="" style="html=1;points=[];perimeter=orthogonalPerimeter;" vertex="1" parent="21">
                    <mxGeometry x="45" y="80" width="10" height="260" as="geometry"/>
                </mxCell>
                <mxCell id="23" value=":Audio_Extractor" style="shape=umlLifeline;perimeter=lifelinePerimeter;whiteSpace=wrap;html=1;container=1;collapsible=0;recursiveResize=0;outlineConnect=0;" vertex="1" parent="1">
                    <mxGeometry x="360" y="20" width="100" height="170" as="geometry"/>
                </mxCell>
                <mxCell id="24" value="" style="html=1;points=[];perimeter=orthogonalPerimeter;" vertex="1" parent="23">
                    <mxGeometry x="45" y="90" width="10" height="70" as="geometry"/>
                </mxCell>
                <mxCell id="30" value="extract_audio(video)" style="endArrow=open;html=1;rounded=0;align=center;verticalAlign=top;endFill=0;labelBackgroundColor=none;endSize=6;" edge="1" parent="23">
                    <mxGeometry relative="1" as="geometry">
                        <mxPoint x="34.5" y="104.5" as="targetPoint"/>
                        <mxPoint x="-85" y="104.5" as="sourcePoint"/>
                    </mxGeometry>
                </mxCell>
                <mxCell id="25" value="[state = new]&lt;br&gt;process(state)" style="endArrow=open;html=1;rounded=0;align=center;verticalAlign=top;endFill=0;labelBackgroundColor=none;endSize=6;" edge="1" parent="1">
                    <mxGeometry relative="1" as="geometry">
                        <mxPoint x="269.5" y="105" as="targetPoint"/>
                        <mxPoint x="150" y="105" as="sourcePoint"/>
                    </mxGeometry>
                </mxCell>
                <mxCell id="28" value=":Storage_Mgr" style="shape=umlLifeline;perimeter=lifelinePerimeter;whiteSpace=wrap;html=1;container=1;collapsible=0;recursiveResize=0;outlineConnect=0;" vertex="1" parent="1">
                    <mxGeometry x="510" y="20" width="100" height="300" as="geometry"/>
                </mxCell>
                <mxCell id="29" value="" style="html=1;points=[];perimeter=orthogonalPerimeter;" vertex="1" parent="28">
                    <mxGeometry x="45" y="180" width="10" height="70" as="geometry"/>
                </mxCell>
                <mxCell id="33" value="store(audio, time, ttl)" style="endArrow=open;html=1;rounded=0;align=center;verticalAlign=top;endFill=0;labelBackgroundColor=none;endSize=6;exitX=0.9;exitY=0.435;exitDx=0;exitDy=0;exitPerimeter=0;" edge="1" parent="1">
                    <mxGeometry relative="1" as="geometry">
                        <mxPoint x="559.5" y="213.10000000000002" as="targetPoint"/>
                        <mxPoint x="274" y="213.10000000000002" as="sourcePoint"/>
                    </mxGeometry>
                </mxCell>
                <mxCell id="34" value="audio_info" style="endArrow=open;startArrow=none;endFill=0;startFill=0;endSize=8;html=1;verticalAlign=bottom;dashed=1;labelBackgroundColor=none;" edge="1" parent="1">
                    <mxGeometry x="-0.0071" y="20" width="160" relative="1" as="geometry">
                        <mxPoint x="550" y="230" as="sourcePoint"/>
                        <mxPoint x="273" y="230" as="targetPoint"/>
                        <mxPoint x="1" as="offset"/>
                    </mxGeometry>
                </mxCell>
                <mxCell id="40" value="audio_info" style="endArrow=open;startArrow=none;endFill=0;startFill=0;endSize=8;html=1;verticalAlign=bottom;dashed=1;labelBackgroundColor=none;" edge="1" parent="1">
                    <mxGeometry x="-0.0071" y="20" width="160" relative="1" as="geometry">
                        <mxPoint x="274.5" y="290.42" as="sourcePoint"/>
                        <mxPoint x="149.9999999999999" y="290" as="targetPoint"/>
                        <mxPoint x="1" as="offset"/>
                    </mxGeometry>
                </mxCell>
                <mxCell id="41" value="update(state, audio_info)" style="endArrow=open;startArrow=none;endFill=0;startFill=0;endSize=8;html=1;verticalAlign=bottom;dashed=1;labelBackgroundColor=none;entryX=0.5;entryY=1;entryDx=0;entryDy=0;" edge="1" parent="1" source="19" target="14">
                    <mxGeometry x="0.2579" width="160" relative="1" as="geometry">
                        <mxPoint x="60" y="290" as="sourcePoint"/>
                        <mxPoint x="159.99999999999977" y="300" as="targetPoint"/>
                        <mxPoint as="offset"/>
                        <Array as="points">
                            <mxPoint x="60" y="290"/>
                        </Array>
                    </mxGeometry>
                </mxCell>
                <mxCell id="42" value="audio" style="endArrow=open;startArrow=none;endFill=0;startFill=0;endSize=8;html=1;verticalAlign=bottom;dashed=1;labelBackgroundColor=none;entryX=0.767;entryY=0.233;entryDx=0;entryDy=0;entryPerimeter=0;" edge="1" parent="1" source="23" target="22">
                    <mxGeometry x="-0.0071" y="20" width="160" relative="1" as="geometry">
                        <mxPoint x="560" y="240" as="sourcePoint"/>
                        <mxPoint x="282.9999999999999" y="240" as="targetPoint"/>
                        <mxPoint x="1" as="offset"/>
                    </mxGeometry>
                </mxCell>
                <mxCell id="43" value="State_Store" style="html=1;rounded=1;absoluteArcSize=1;arcSize=10;" vertex="1" parent="1">
                    <mxGeometry x="20" y="440" width="80" height="30" as="geometry"/>
                </mxCell>
                <mxCell id="44" value="" style="endArrow=open;html=1;rounded=0;align=center;verticalAlign=top;endFill=0;labelBackgroundColor=none;endSize=6;" edge="1" source="43" parent="1">
                    <mxGeometry relative="1" as="geometry">
                        <mxPoint x="140" y="454.99999999999994" as="targetPoint"/>
                    </mxGeometry>
                </mxCell>
                <mxCell id="45" value=":main" style="shape=umlLifeline;perimeter=lifelinePerimeter;whiteSpace=wrap;html=1;container=1;collapsible=0;recursiveResize=0;outlineConnect=0;" vertex="1" parent="1">
                    <mxGeometry x="100" y="380" width="100" height="300" as="geometry"/>
                </mxCell>
                <mxCell id="46" value="" style="html=1;points=[];perimeter=orthogonalPerimeter;" vertex="1" parent="45">
                    <mxGeometry x="45" y="60" width="10" height="220" as="geometry"/>
                </mxCell>
                <mxCell id="47" value=":processor" style="shape=umlLifeline;perimeter=lifelinePerimeter;whiteSpace=wrap;html=1;container=1;collapsible=0;recursiveResize=0;outlineConnect=0;" vertex="1" parent="1">
                    <mxGeometry x="220" y="380" width="100" height="340" as="geometry"/>
                </mxCell>
                <mxCell id="48" value="" style="html=1;points=[];perimeter=orthogonalPerimeter;" vertex="1" parent="47">
                    <mxGeometry x="45" y="80" width="10" height="260" as="geometry"/>
                </mxCell>
                <mxCell id="49" value="ok" style="endArrow=open;startArrow=none;endFill=0;startFill=0;endSize=8;html=1;verticalAlign=bottom;dashed=1;labelBackgroundColor=none;" edge="1" parent="47" source="54">
                    <mxGeometry x="-0.0071" y="20" width="160" relative="1" as="geometry">
                        <mxPoint x="444.5" y="249" as="sourcePoint"/>
                        <mxPoint x="55" y="249" as="targetPoint"/>
                        <mxPoint x="1" as="offset"/>
                    </mxGeometry>
                </mxCell>
                <mxCell id="50" value=":STT_Extractor" style="shape=umlLifeline;perimeter=lifelinePerimeter;whiteSpace=wrap;html=1;container=1;collapsible=0;recursiveResize=0;outlineConnect=0;" vertex="1" parent="1">
                    <mxGeometry x="360" y="380" width="100" height="170" as="geometry"/>
                </mxCell>
                <mxCell id="51" value="" style="html=1;points=[];perimeter=orthogonalPerimeter;" vertex="1" parent="50">
                    <mxGeometry x="45" y="90" width="10" height="70" as="geometry"/>
                </mxCell>
                <mxCell id="52" value="extract_stt(audio)" style="endArrow=open;html=1;rounded=0;align=center;verticalAlign=top;endFill=0;labelBackgroundColor=none;endSize=6;" edge="1" parent="50">
                    <mxGeometry relative="1" as="geometry">
                        <mxPoint x="34.5" y="104.5" as="targetPoint"/>
                        <mxPoint x="-85" y="104.5" as="sourcePoint"/>
                    </mxGeometry>
                </mxCell>
                <mxCell id="53" value="[state = audio_processed]&lt;br&gt;process(state)" style="endArrow=open;html=1;rounded=0;align=center;verticalAlign=top;endFill=0;labelBackgroundColor=none;endSize=6;" edge="1" parent="1">
                    <mxGeometry relative="1" as="geometry">
                        <mxPoint x="269.5000000000001" y="465" as="targetPoint"/>
                        <mxPoint x="150" y="465" as="sourcePoint"/>
                    </mxGeometry>
                </mxCell>
                <mxCell id="54" value=":Storage_Mgr" style="shape=umlLifeline;perimeter=lifelinePerimeter;whiteSpace=wrap;html=1;container=1;collapsible=0;recursiveResize=0;outlineConnect=0;" vertex="1" parent="1">
                    <mxGeometry x="510" y="380" width="100" height="300" as="geometry"/>
                </mxCell>
                <mxCell id="55" value="" style="html=1;points=[];perimeter=orthogonalPerimeter;" vertex="1" parent="54">
                    <mxGeometry x="45" y="180" width="10" height="70" as="geometry"/>
                </mxCell>
                <mxCell id="56" value="delete(audio)" style="endArrow=open;html=1;rounded=0;align=center;verticalAlign=top;endFill=0;labelBackgroundColor=none;endSize=6;" edge="1" parent="54">
                    <mxGeometry relative="1" as="geometry">
                        <mxPoint x="45" y="232.10000000000002" as="targetPoint"/>
                        <mxPoint x="-240" y="232" as="sourcePoint"/>
                    </mxGeometry>
                </mxCell>
                <mxCell id="57" value="store(stt)" style="endArrow=open;html=1;rounded=0;align=center;verticalAlign=top;endFill=0;labelBackgroundColor=none;endSize=6;exitX=0.9;exitY=0.435;exitDx=0;exitDy=0;exitPerimeter=0;" edge="1" source="48" target="54" parent="1">
                    <mxGeometry relative="1" as="geometry">
                        <mxPoint x="620" y="590" as="targetPoint"/>
                        <mxPoint x="330" y="570" as="sourcePoint"/>
                    </mxGeometry>
                </mxCell>
                <mxCell id="58" value="stt_info" style="endArrow=open;startArrow=none;endFill=0;startFill=0;endSize=8;html=1;verticalAlign=bottom;dashed=1;labelBackgroundColor=none;" edge="1" parent="1">
                    <mxGeometry x="-0.0071" y="20" width="160" relative="1" as="geometry">
                        <mxPoint x="550" y="590" as="sourcePoint"/>
                        <mxPoint x="272.9999999999999" y="590" as="targetPoint"/>
                        <mxPoint x="1" as="offset"/>
                    </mxGeometry>
                </mxCell>
                <mxCell id="59" value="stt" style="endArrow=open;startArrow=none;endFill=0;startFill=0;endSize=8;html=1;verticalAlign=bottom;dashed=1;labelBackgroundColor=none;" edge="1" parent="1">
                    <mxGeometry x="-0.0071" y="20" width="160" relative="1" as="geometry">
                        <mxPoint x="274.5000000000001" y="650.4200000000001" as="sourcePoint"/>
                        <mxPoint x="149.99999999999977" y="650" as="targetPoint"/>
                        <mxPoint x="1" as="offset"/>
                    </mxGeometry>
                </mxCell>
                <mxCell id="60" value="update(state, stt_info)" style="endArrow=open;startArrow=none;endFill=0;startFill=0;endSize=8;html=1;verticalAlign=bottom;dashed=1;labelBackgroundColor=none;entryX=0.5;entryY=1;entryDx=0;entryDy=0;" edge="1" source="45" target="43" parent="1">
                    <mxGeometry x="0.2579" width="160" relative="1" as="geometry">
                        <mxPoint x="60" y="650" as="sourcePoint"/>
                        <mxPoint x="159.99999999999977" y="660" as="targetPoint"/>
                        <mxPoint as="offset"/>
                        <Array as="points">
                            <mxPoint x="60" y="650"/>
                        </Array>
                    </mxGeometry>
                </mxCell>
                <mxCell id="61" value="stt" style="endArrow=open;startArrow=none;endFill=0;startFill=0;endSize=8;html=1;verticalAlign=bottom;dashed=1;labelBackgroundColor=none;entryX=0.767;entryY=0.233;entryDx=0;entryDy=0;entryPerimeter=0;" edge="1" source="50" target="48" parent="1">
                    <mxGeometry x="-0.0071" y="20" width="160" relative="1" as="geometry">
                        <mxPoint x="560" y="600" as="sourcePoint"/>
                        <mxPoint x="282.9999999999999" y="600" as="targetPoint"/>
                        <mxPoint x="1" as="offset"/>
                    </mxGeometry>
                </mxCell>
                <mxCell id="63" value="State_Store" style="html=1;rounded=1;absoluteArcSize=1;arcSize=10;" vertex="1" parent="1">
                    <mxGeometry x="10" y="800" width="80" height="30" as="geometry"/>
                </mxCell>
                <mxCell id="64" value="" style="endArrow=open;html=1;rounded=0;align=center;verticalAlign=top;endFill=0;labelBackgroundColor=none;endSize=6;" edge="1" source="63" parent="1">
                    <mxGeometry relative="1" as="geometry">
                        <mxPoint x="130" y="815.0000000000001" as="targetPoint"/>
                    </mxGeometry>
                </mxCell>
                <mxCell id="65" value=":main" style="shape=umlLifeline;perimeter=lifelinePerimeter;whiteSpace=wrap;html=1;container=1;collapsible=0;recursiveResize=0;outlineConnect=0;" vertex="1" parent="1">
                    <mxGeometry x="90" y="740" width="100" height="580" as="geometry"/>
                </mxCell>
                <mxCell id="66" value="" style="html=1;points=[];perimeter=orthogonalPerimeter;" vertex="1" parent="65">
                    <mxGeometry x="45" y="60" width="10" height="510" as="geometry"/>
                </mxCell>
                <mxCell id="67" value=":processor" style="shape=umlLifeline;perimeter=lifelinePerimeter;whiteSpace=wrap;html=1;container=1;collapsible=0;recursiveResize=0;outlineConnect=0;" vertex="1" parent="1">
                    <mxGeometry x="210" y="740" width="100" height="590" as="geometry"/>
                </mxCell>
                <mxCell id="68" value="" style="html=1;points=[];perimeter=orthogonalPerimeter;" vertex="1" parent="67">
                    <mxGeometry x="45" y="80" width="10" height="480" as="geometry"/>
                </mxCell>
                <mxCell id="79" value="sv_info" style="endArrow=open;startArrow=none;endFill=0;startFill=0;endSize=8;html=1;verticalAlign=bottom;dashed=1;labelBackgroundColor=none;" edge="1" parent="67">
                    <mxGeometry x="-0.0071" y="20" width="160" relative="1" as="geometry">
                        <mxPoint x="49.500000000000114" y="550.4200000000001" as="sourcePoint"/>
                        <mxPoint x="-75.00000000000023" y="550" as="targetPoint"/>
                        <mxPoint x="1" as="offset"/>
                    </mxGeometry>
                </mxCell>
                <mxCell id="70" value=":Subtitle_Gen" style="shape=umlLifeline;perimeter=lifelinePerimeter;whiteSpace=wrap;html=1;container=1;collapsible=0;recursiveResize=0;outlineConnect=0;" vertex="1" parent="1">
                    <mxGeometry x="350" y="960" width="100" height="170" as="geometry"/>
                </mxCell>
                <mxCell id="71" value="" style="html=1;points=[];perimeter=orthogonalPerimeter;" vertex="1" parent="70">
                    <mxGeometry x="45" y="90" width="10" height="70" as="geometry"/>
                </mxCell>
                <mxCell id="72" value="gen_subs(stt, video)" style="endArrow=open;html=1;rounded=0;align=center;verticalAlign=top;endFill=0;labelBackgroundColor=none;endSize=6;" edge="1" parent="70">
                    <mxGeometry relative="1" as="geometry">
                        <mxPoint x="40" y="105" as="targetPoint"/>
                        <mxPoint x="-85" y="104.5" as="sourcePoint"/>
                    </mxGeometry>
                </mxCell>
                <mxCell id="73" value="[state = stt_processed]&lt;br&gt;process(state)" style="endArrow=open;html=1;rounded=0;align=center;verticalAlign=top;endFill=0;labelBackgroundColor=none;endSize=6;" edge="1" parent="1">
                    <mxGeometry relative="1" as="geometry">
                        <mxPoint x="259.5000000000001" y="825.0000000000001" as="targetPoint"/>
                        <mxPoint x="140" y="825.0000000000001" as="sourcePoint"/>
                    </mxGeometry>
                </mxCell>
                <mxCell id="74" value=":Storage_Mgr" style="shape=umlLifeline;perimeter=lifelinePerimeter;whiteSpace=wrap;html=1;container=1;collapsible=0;recursiveResize=0;outlineConnect=0;" vertex="1" parent="1">
                    <mxGeometry x="500" y="740" width="100" height="610" as="geometry"/>
                </mxCell>
                <mxCell id="75" value="" style="html=1;points=[];perimeter=orthogonalPerimeter;" vertex="1" parent="74">
                    <mxGeometry x="45" y="80" width="10" height="530" as="geometry"/>
                </mxCell>
                <mxCell id="87" value="ok" style="endArrow=open;startArrow=none;endFill=0;startFill=0;endSize=8;html=1;verticalAlign=bottom;dashed=1;labelBackgroundColor=none;" edge="1" parent="74">
                    <mxGeometry x="-0.0071" y="20" width="160" relative="1" as="geometry">
                        <mxPoint x="256.5" y="859" as="sourcePoint"/>
                        <mxPoint x="-28" y="859" as="targetPoint"/>
                        <mxPoint x="1" as="offset"/>
                    </mxGeometry>
                </mxCell>
                <mxCell id="89" value="delete(audio)" style="endArrow=open;html=1;rounded=0;align=center;verticalAlign=top;endFill=0;labelBackgroundColor=none;endSize=6;" edge="1" parent="74">
                    <mxGeometry relative="1" as="geometry">
                        <mxPoint x="542" y="842.0999999999999" as="targetPoint"/>
                        <mxPoint x="257" y="842" as="sourcePoint"/>
                    </mxGeometry>
                </mxCell>
                <mxCell id="91" value="sv_info" style="endArrow=open;startArrow=none;endFill=0;startFill=0;endSize=8;html=1;verticalAlign=bottom;dashed=1;labelBackgroundColor=none;" edge="1" parent="74">
                    <mxGeometry x="-0.0071" y="20" width="160" relative="1" as="geometry">
                        <mxPoint x="37" y="429" as="sourcePoint"/>
                        <mxPoint x="-240.00000000000023" y="429" as="targetPoint"/>
                        <mxPoint x="1" as="offset"/>
                    </mxGeometry>
                </mxCell>
                <mxCell id="77" value="get(video)" style="endArrow=open;html=1;rounded=0;align=center;verticalAlign=top;endFill=0;labelBackgroundColor=none;endSize=6;" edge="1" source="67" target="74" parent="1">
                    <mxGeometry relative="1" as="geometry">
                        <mxPoint x="610" y="950" as="targetPoint"/>
                        <mxPoint x="320" y="930" as="sourcePoint"/>
                        <Array as="points">
                            <mxPoint x="430" y="840"/>
                        </Array>
                    </mxGeometry>
                </mxCell>
                <mxCell id="80" value="update(state, sv_info)" style="endArrow=open;startArrow=none;endFill=0;startFill=0;endSize=8;html=1;verticalAlign=bottom;dashed=1;labelBackgroundColor=none;entryX=0.5;entryY=1;entryDx=0;entryDy=0;" edge="1" source="65" target="63" parent="1">
                    <mxGeometry x="0.2579" width="160" relative="1" as="geometry">
                        <mxPoint x="50" y="1010" as="sourcePoint"/>
                        <mxPoint x="149.99999999999977" y="1020" as="targetPoint"/>
                        <mxPoint as="offset"/>
                        <Array as="points">
                            <mxPoint x="50" y="1290"/>
                            <mxPoint x="50" y="1010"/>
                        </Array>
                    </mxGeometry>
                </mxCell>
                <mxCell id="83" value="video" style="endArrow=open;startArrow=none;endFill=0;startFill=0;endSize=8;html=1;verticalAlign=bottom;dashed=1;labelBackgroundColor=none;" edge="1" parent="1">
                    <mxGeometry x="-0.0071" y="20" width="160" relative="1" as="geometry">
                        <mxPoint x="537" y="870" as="sourcePoint"/>
                        <mxPoint x="259.9999999999998" y="870" as="targetPoint"/>
                        <mxPoint x="1" as="offset"/>
                    </mxGeometry>
                </mxCell>
                <mxCell id="84" value="get(stt)" style="endArrow=open;html=1;rounded=0;align=center;verticalAlign=top;endFill=0;labelBackgroundColor=none;endSize=6;exitX=1.233;exitY=0.074;exitDx=0;exitDy=0;exitPerimeter=0;" edge="1" parent="1">
                    <mxGeometry relative="1" as="geometry">
                        <mxPoint x="544.75" y="900.76" as="targetPoint"/>
                        <mxPoint x="262.5799999999997" y="900" as="sourcePoint"/>
                        <Array as="points">
                            <mxPoint x="425.25" y="900.76"/>
                        </Array>
                    </mxGeometry>
                </mxCell>
                <mxCell id="85" value="stt" style="endArrow=open;startArrow=none;endFill=0;startFill=0;endSize=8;html=1;verticalAlign=bottom;dashed=1;labelBackgroundColor=none;" edge="1" parent="1">
                    <mxGeometry x="-0.0071" y="20" width="160" relative="1" as="geometry">
                        <mxPoint x="538.5" y="930" as="sourcePoint"/>
                        <mxPoint x="261.5" y="930" as="targetPoint"/>
                        <mxPoint x="1" as="offset"/>
                    </mxGeometry>
                </mxCell>
                <mxCell id="86" value="subtitled_video" style="endArrow=open;startArrow=none;endFill=0;startFill=0;endSize=8;html=1;verticalAlign=bottom;dashed=1;labelBackgroundColor=none;" edge="1" parent="1">
                    <mxGeometry x="-0.0071" y="20" width="160" relative="1" as="geometry">
                        <mxPoint x="390" y="1100" as="sourcePoint"/>
                        <mxPoint x="261.5" y="1100" as="targetPoint"/>
                        <mxPoint x="1" as="offset"/>
                    </mxGeometry>
                </mxCell>
                <mxCell id="90" value="store(subtitled_video)" style="endArrow=open;html=1;rounded=0;align=center;verticalAlign=top;endFill=0;labelBackgroundColor=none;endSize=6;exitX=0.9;exitY=0.435;exitDx=0;exitDy=0;exitPerimeter=0;" edge="1" parent="1">
                    <mxGeometry relative="1" as="geometry">
                        <mxPoint x="545" y="1140" as="targetPoint"/>
                        <mxPoint x="259.5" y="1140" as="sourcePoint"/>
                    </mxGeometry>
                </mxCell>
                <mxCell id="95" value="ok" style="endArrow=open;startArrow=none;endFill=0;startFill=0;endSize=8;html=1;verticalAlign=bottom;dashed=1;labelBackgroundColor=none;" edge="1" parent="1">
                    <mxGeometry x="-0.0071" y="20" width="160" relative="1" as="geometry">
                        <mxPoint x="544.75" y="1218.9999999999998" as="sourcePoint"/>
                        <mxPoint x="267.75" y="1218.9999999999998" as="targetPoint"/>
                        <mxPoint x="1" as="offset"/>
                    </mxGeometry>
                </mxCell>
                <mxCell id="96" value="delete(video)" style="endArrow=open;html=1;rounded=0;align=center;verticalAlign=top;endFill=0;labelBackgroundColor=none;endSize=6;exitX=0.9;exitY=0.435;exitDx=0;exitDy=0;exitPerimeter=0;" edge="1" parent="1">
                    <mxGeometry relative="1" as="geometry">
                        <mxPoint x="552.75" y="1190" as="targetPoint"/>
                        <mxPoint x="267.25" y="1190" as="sourcePoint"/>
                    </mxGeometry>
                </mxCell>
                <mxCell id="97" value="ok" style="endArrow=open;startArrow=none;endFill=0;startFill=0;endSize=8;html=1;verticalAlign=bottom;dashed=1;labelBackgroundColor=none;" edge="1" parent="1">
                    <mxGeometry x="-0.0071" y="20" width="160" relative="1" as="geometry">
                        <mxPoint x="544.75" y="1268.9999999999998" as="sourcePoint"/>
                        <mxPoint x="267.75" y="1268.9999999999998" as="targetPoint"/>
                        <mxPoint x="1" as="offset"/>
                    </mxGeometry>
                </mxCell>
                <mxCell id="98" value="delete(stt)" style="endArrow=open;html=1;rounded=0;align=center;verticalAlign=top;endFill=0;labelBackgroundColor=none;endSize=6;exitX=0.9;exitY=0.435;exitDx=0;exitDy=0;exitPerimeter=0;" edge="1" parent="1">
                    <mxGeometry relative="1" as="geometry">
                        <mxPoint x="552.75" y="1240" as="targetPoint"/>
                        <mxPoint x="267.25" y="1240" as="sourcePoint"/>
                    </mxGeometry>
                </mxCell>
            </root>
        </mxGraphModel>
    </diagram>
</mxfile>